ffmpeg started on 2025-05-12 at 16:23:05
Report written to "D:\Convert\FFMetrics\reports\psnr_report-6.txt"
Log level: 32
Command line:
ffmpeg -hide_banner -nostdin -i "G:\\\xc0\xed\xe8\xec\xe5\\\xce\xed\xe3\xee\xe8\xed\xe3\xe8\\!_35_\xcb\xe5\xf2\xee_2024\\DreamCast\\\xcc\xee\xff \xef\xee\xe4\xf0\xf3\xe3\xe0-\xee\xeb\xe5\xed\xe8\xf5\xe0, \xcd\xee\xea\xee\xf2\xe0\xed\\[DC] Shikanoko Nokonoko Koshitantan - 01_Telegram_HEVC.mkv" -i "G:\\\xc0\xed\xe8\xec\xe5\\\xce\xed\xe3\xee\xe8\xed\xe3\xe8\\!_35_\xcb\xe5\xf2\xee_2024\\DreamCast\\\xcc\xee\xff \xef\xee\xe4\xf0\xf3\xe3\xe0-\xee\xeb\xe5\xed\xe8\xf5\xe0, \xcd\xee\xea\xee\xf2\xe0\xed\\[DC] Shikanoko Nokonoko Koshitantan - 01_Telegram.mp4" -lavfi "[0:v]settb=AVTB,setpts=PTS-STARTPTS,format=pix_fmts=yuv420p10,fps=24000/1001,scale=1920:1080:flags=bicubic[main];[1:v]settb=AVTB,setpts=PTS-STARTPTS,format=pix_fmts=yuv420p,fps=24000/1001,scale=1920:1080:flags=bicubic[ref];[main][ref]psnr=eof_action=endall:stats_file='D\\:/Convert/FFMetrics/logs/psnr_logfile-6.txt'" -f null -
Input #0, matroska,webm, from 'G:\Аниме\Онгоинги\!_35_Лето_2024\DreamCast\Моя подруга-олениха, Нокотан\[DC] Shikanoko Nokonoko Koshitantan - 01_Telegram_HEVC.mkv':
  Metadata:
    COMPATIBLE_BRANDS: isomiso2avc1mp41
    MAJOR_BRAND     : isom
    MINOR_VERSION   : 512
    ENCODER         : Lavf61.7.100
  Duration: 00:23:41.65, start: -0.021000, bitrate: 1703 kb/s
  Stream #0:0: Video: hevc (Main 10), yuv420p10le(tv, bt709, progressive), 1920x1080 [SAR 1:1 DAR 16:9], 23.98 fps, 23.98 tbr, 1k tbn (default)
      Metadata:
        HANDLER_NAME    : VideoHandler
        VENDOR_ID       : [0][0][0][0]
        ENCODER         : Lavc61.19.100 libx265
        BPS             : 1505224
        DURATION        : 00:23:41.586708333
        NUMBER_OF_FRAMES: 34084
        NUMBER_OF_BYTES : 267475711
        _STATISTICS_WRITING_APP: mkvpropedit v66.0.0 ('Josie') 64-bit
        _STATISTICS_WRITING_DATE_UTC: 2025-05-08 09:45:56
        _STATISTICS_TAGS: BPS DURATION NUMBER_OF_FRAMES NUMBER_OF_BYTES
  Stream #0:1: Audio: aac (LC), 48000 Hz, stereo, fltp (default)
      Metadata:
        HANDLER_NAME    : SoundHandler
        VENDOR_ID       : [0][0][0][0]
        ENCODER         : Lavc61.19.100 aac
        BPS             : 193874
        DURATION        : 00:23:41.653000000
        NUMBER_OF_FRAMES: 66641
        NUMBER_OF_BYTES : 34452754
        _STATISTICS_WRITING_APP: mkvpropedit v66.0.0 ('Josie') 64-bit
        _STATISTICS_WRITING_DATE_UTC: 2025-05-08 09:45:56
        _STATISTICS_TAGS: BPS DURATION NUMBER_OF_FRAMES NUMBER_OF_BYTES
Input #1, mov,mp4,m4a,3gp,3g2,mj2, from 'G:\Аниме\Онгоинги\!_35_Лето_2024\DreamCast\Моя подруга-олениха, Нокотан\[DC] Shikanoko Nokonoko Koshitantan - 01_Telegram.mp4':
  Metadata:
    major_brand     : isom
    minor_version   : 512
    compatible_brands: isomiso2avc1mp41
    encoder         : Lavf61.1.100
  Duration: 00:23:41.63, start: 0.000000, bitrate: 3714 kb/s
  Stream #1:0[0x1](und): Video: h264 (High) (avc1 / 0x31637661), yuv420p(tv, bt709, progressive), 1920x1080 [SAR 1:1 DAR 16:9], 3566 kb/s, 23.98 fps, 23.98 tbr, 24k tbn (default)
      Metadata:
        handler_name    : VideoHandler
        vendor_id       : [0][0][0][0]
        encoder         : Lavc61.3.100 h264_qsv
  Stream #1:1[0x2](und): Audio: aac (HE-AACv2) (mp4a / 0x6134706D), 48000 Hz, stereo, fltp, 144 kb/s (default)
      Metadata:
        handler_name    : SoundHandler
        vendor_id       : [0][0][0][0]
Stream mapping:
  Stream #0:0 (hevc) -> settb:default
  Stream #1:0 (h264) -> settb:default
  psnr:default -> Stream #0:0 (wrapped_avframe)
  Stream #0:1 -> #0:1 (aac (native) -> pcm_s16le (native))
Output #0, null, to 'pipe:':
  Metadata:
    COMPATIBLE_BRANDS: isomiso2avc1mp41
    MAJOR_BRAND     : isom
    MINOR_VERSION   : 512
    encoder         : Lavf61.7.100
  Stream #0:0: Video: wrapped_avframe, yuv420p10le(tv, bt709, progressive), 1920x1080 [SAR 1:1 DAR 16:9], q=2-31, 200 kb/s, 23.98 fps, 23.98 tbn
      Metadata:
        encoder         : Lavc61.19.100 wrapped_avframe
  Stream #0:1: Audio: pcm_s16le, 48000 Hz, stereo, s16, 1536 kb/s (default)
      Metadata:
        HANDLER_NAME    : SoundHandler
        VENDOR_ID       : [0][0][0][0]
        _STATISTICS_TAGS: BPS DURATION NUMBER_OF_FRAMES NUMBER_OF_BYTES
        BPS             : 193874
        DURATION        : 00:23:41.653000000
        NUMBER_OF_FRAMES: 66641
        NUMBER_OF_BYTES : 34452754
        _STATISTICS_WRITING_APP: mkvpropedit v66.0.0 ('Josie') 64-bit
        _STATISTICS_WRITING_DATE_UTC: 2025-05-08 09:45:56
        encoder         : Lavc61.19.100 pcm_s16le
frame=  158 fps=0.0 q=-0.0 size=N/A time=00:00:06.58 bitrate=N/A speed=12.8x    frame=  315 fps=309 q=-0.0 size=N/A time=00:00:13.13 bitrate=N/A speed=12.9x    frame=  494 fps=320 q=-0.0 size=N/A time=00:00:20.60 bitrate=N/A speed=13.3x    frame=  729 fps=355 q=-0.0 size=N/A time=00:00:30.40 bitrate=N/A speed=14.8x    frame=  919 fps=357 q=-0.0 size=N/A time=00:00:38.32 bitrate=N/A speed=14.9x    frame= 1133 fps=366 q=-0.0 size=N/A time=00:00:47.25 bitrate=N/A speed=15.3x    frame= 1341 fps=373 q=-0.0 size=N/A time=00:00:55.93 bitrate=N/A speed=15.5x    frame= 1511 fps=367 q=-0.0 size=N/A time=00:01:03.02 bitrate=N/A speed=15.3x    frame= 1686 fps=364 q=-0.0 size=N/A time=00:01:10.32 bitrate=N/A speed=15.2x    frame= 1901 fps=370 q=-0.0 size=N/A time=00:01:19.28 bitrate=N/A speed=15.4x    frame= 2119 fps=374 q=-0.0 size=N/A time=00:01:28.37 bitrate=N/A speed=15.6x    frame= 2333 fps=377 q=-0.0 size=N/A time=00:01:37.30 bitrate=N/A speed=15.7x    frame= 2541 fps=380 q=-0.0 size=N/A time=00:01:45.98 bitrate=N/A speed=15.8x    frame= 2765 fps=383 q=-0.0 size=N/A time=00:01:55.32 bitrate=N/A speed=  16x    frame= 2925 fps=379 q=-0.0 size=N/A time=00:02:01.99 bitrate=N/A speed=15.8x    frame= 3160 fps=383 q=-0.0 size=N/A time=00:02:11.79 bitrate=N/A speed=  16x    frame= 3344 fps=381 q=-0.0 size=N/A time=00:02:19.47 bitrate=N/A speed=15.9x    frame= 3568 fps=385 q=-0.0 size=N/A time=00:02:28.81 bitrate=N/A speed=  16x    frame= 3791 fps=387 q=-0.0 size=N/A time=00:02:38.11 bitrate=N/A speed=16.1x    frame= 4035 fps=392 q=-0.0 size=N/A time=00:02:48.29 bitrate=N/A speed=16.3x    frame= 4236 fps=391 q=-0.0 size=N/A time=00:02:56.67 bitrate=N/A speed=16.3x    frame= 4402 fps=388 q=-0.0 size=N/A time=00:03:03.60 bitrate=N/A speed=16.2x    frame= 4616 fps=389 q=-0.0 size=N/A time=00:03:12.52 bitrate=N/A speed=16.2x    frame= 4816 fps=390 q=-0.0 size=N/A time=00:03:20.86 bitrate=N/A speed=16.2x    frame= 5019 fps=389 q=-0.0 size=N/A time=00:03:29.33 bitrate=N/A speed=16.2x    frame= 5218 fps=389 q=-0.0 size=N/A time=00:03:37.63 bitrate=N/A speed=16.2x    frame= 5431 fps=390 q=-0.0 size=N/A time=00:03:46.51 bitrate=N/A speed=16.3x    frame= 5646 fps=391 q=-0.0 size=N/A time=00:03:55.48 bitrate=N/A speed=16.3x    frame= 5805 fps=388 q=-0.0 size=N/A time=00:04:02.11 bitrate=N/A speed=16.2x    frame= 6041 fps=391 q=-0.0 size=N/A time=00:04:11.96 bitrate=N/A speed=16.3x    frame= 6277 fps=393 q=-0.0 size=N/A time=00:04:21.80 bitrate=N/A speed=16.4x    frame= 6535 fps=396 q=-0.0 size=N/A time=00:04:32.56 bitrate=N/A speed=16.5x    frame= 6768 fps=397 q=-0.0 size=N/A time=00:04:42.28 bitrate=N/A speed=16.6x    frame= 7003 fps=399 q=-0.0 size=N/A time=00:04:52.08 bitrate=N/A speed=16.6x    frame= 7222 fps=400 q=-0.0 size=N/A time=00:05:01.21 bitrate=N/A speed=16.7x    frame= 7480 fps=403 q=-0.0 size=N/A time=00:05:11.97 bitrate=N/A speed=16.8x    frame= 7715 fps=404 q=-0.0 size=N/A time=00:05:21.77 bitrate=N/A speed=16.9x    frame= 7935 fps=405 q=-0.0 size=N/A time=00:05:30.95 bitrate=N/A speed=16.9x    frame= 8201 fps=408 q=-0.0 size=N/A time=00:05:42.05 bitrate=N/A speed=  17x    frame= 8407 fps=407 q=-0.0 size=N/A time=00:05:50.64 bitrate=N/A speed=  17x    frame= 8578 fps=406 q=-0.0 size=N/A time=00:05:57.77 bitrate=N/A speed=16.9x    frame= 8779 fps=405 q=-0.0 size=N/A time=00:06:06.15 bitrate=N/A speed=16.9x    frame= 9028 fps=407 q=-0.0 size=N/A time=00:06:16.54 bitrate=N/A speed=  17x    frame= 9284 fps=409 q=-0.0 size=N/A time=00:06:27.22 bitrate=N/A speed=17.1x    frame= 9507 fps=409 q=-0.0 size=N/A time=00:06:36.52 bitrate=N/A speed=17.1x    frame= 9736 fps=410 q=-0.0 size=N/A time=00:06:46.07 bitrate=N/A speed=17.1x    frame= 9986 fps=412 q=-0.0 size=N/A time=00:06:56.49 bitrate=N/A speed=17.2x    frame=10234 fps=413 q=-0.0 size=N/A time=00:07:06.84 bitrate=N/A speed=17.2x    frame=10467 fps=414 q=-0.0 size=N/A time=00:07:16.56 bitrate=N/A speed=17.3x    frame=10735 fps=416 q=-0.0 size=N/A time=00:07:27.73 bitrate=N/A speed=17.4x    frame=10965 fps=417 q=-0.0 size=N/A time=00:07:37.33 bitrate=N/A speed=17.4x    frame=11176 fps=417 q=-0.0 size=N/A time=00:07:46.13 bitrate=N/A speed=17.4x    frame=11386 fps=416 q=-0.0 size=N/A time=00:07:54.89 bitrate=N/A speed=17.4x    frame=11626 fps=417 q=-0.0 size=N/A time=00:08:04.90 bitrate=N/A speed=17.4x    frame=11867 fps=418 q=-0.0 size=N/A time=00:08:14.95 bitrate=N/A speed=17.4x    frame=12090 fps=419 q=-0.0 size=N/A time=00:08:24.25 bitrate=N/A speed=17.5x    frame=12316 fps=419 q=-0.0 size=N/A time=00:08:33.67 bitrate=N/A speed=17.5x    frame=12572 fps=420 q=-0.0 size=N/A time=00:08:44.35 bitrate=N/A speed=17.5x    frame=12788 fps=420 q=-0.0 size=N/A time=00:08:53.36 bitrate=N/A speed=17.5x    frame=13025 fps=421 q=-0.0 size=N/A time=00:09:03.25 bitrate=N/A speed=17.5x    frame=13274 fps=422 q=-0.0 size=N/A time=00:09:13.63 bitrate=N/A speed=17.6x    frame=13475 fps=421 q=-0.0 size=N/A time=00:09:22.01 bitrate=N/A speed=17.6x    frame=13733 fps=423 q=-0.0 size=N/A time=00:09:32.78 bitrate=N/A speed=17.6x    frame=13938 fps=422 q=-0.0 size=N/A time=00:09:41.33 bitrate=N/A speed=17.6x    frame=14170 fps=423 q=-0.0 size=N/A time=00:09:51.00 bitrate=N/A speed=17.6x    frame=14401 fps=423 q=-0.0 size=N/A time=00:10:00.64 bitrate=N/A speed=17.6x    frame=14568 fps=422 q=-0.0 size=N/A time=00:10:07.60 bitrate=N/A speed=17.6x    frame=14808 fps=422 q=-0.0 size=N/A time=00:10:17.61 bitrate=N/A speed=17.6x    frame=15053 fps=423 q=-0.0 size=N/A time=00:10:27.83 bitrate=N/A speed=17.6x    frame=15253 fps=422 q=-0.0 size=N/A time=00:10:36.17 bitrate=N/A speed=17.6x    frame=15511 fps=424 q=-0.0 size=N/A time=00:10:46.93 bitrate=N/A speed=17.7x    frame=15709 fps=423 q=-0.0 size=N/A time=00:10:55.19 bitrate=N/A speed=17.6x    frame=15972 fps=424 q=-0.0 size=N/A time=00:11:06.16 bitrate=N/A speed=17.7x    frame=16185 fps=424 q=-0.0 size=N/A time=00:11:15.04 bitrate=N/A speed=17.7x    frame=16415 fps=424 q=-0.0 size=N/A time=00:11:24.64 bitrate=N/A speed=17.7x    frame=16637 fps=424 q=-0.0 size=N/A time=00:11:33.90 bitrate=N/A speed=17.7x    frame=16882 fps=425 q=-0.0 size=N/A time=00:11:44.12 bitrate=N/A speed=17.7x    frame=17120 fps=426 q=-0.0 size=N/A time=00:11:54.04 bitrate=N/A speed=17.8x    frame=17366 fps=426 q=-0.0 size=N/A time=00:12:04.30 bitrate=N/A speed=17.8x    frame=17593 fps=426 q=-0.0 size=N/A time=00:12:13.77 bitrate=N/A speed=17.8x    frame=17851 fps=427 q=-0.0 size=N/A time=00:12:24.53 bitrate=N/A speed=17.8x    frame=18108 fps=428 q=-0.0 size=N/A time=00:12:35.25 bitrate=N/A speed=17.9x    frame=18373 fps=429 q=-0.0 size=N/A time=00:12:46.30 bitrate=N/A speed=17.9x    frame=18601 fps=429 q=-0.0 size=N/A time=00:12:55.81 bitrate=N/A speed=17.9x    frame=18865 fps=430 q=-0.0 size=N/A time=00:13:06.82 bitrate=N/A speed=17.9x    frame=19129 fps=431 q=-0.0 size=N/A time=00:13:17.83 bitrate=N/A speed=  18x    frame=19361 fps=431 q=-0.0 size=N/A time=00:13:27.51 bitrate=N/A speed=  18x    frame=19581 fps=431 q=-0.0 size=N/A time=00:13:36.69 bitrate=N/A speed=  18x    frame=19827 fps=432 q=-0.0 size=N/A time=00:13:46.95 bitrate=N/A speed=  18x    frame=20056 fps=432 q=-0.0 size=N/A time=00:13:56.50 bitrate=N/A speed=  18x    frame=20322 fps=433 q=-0.0 size=N/A time=00:14:07.59 bitrate=N/A speed=18.1x    frame=20565 fps=433 q=-0.0 size=N/A time=00:14:17.73 bitrate=N/A speed=18.1x    frame=20819 fps=434 q=-0.0 size=N/A time=00:14:28.32 bitrate=N/A speed=18.1x    frame=21077 fps=435 q=-0.0 size=N/A time=00:14:39.08 bitrate=N/A speed=18.1x    frame=21315 fps=435 q=-0.0 size=N/A time=00:14:49.01 bitrate=N/A speed=18.1x    frame=21581 fps=436 q=-0.0 size=N/A time=00:15:00.10 bitrate=N/A speed=18.2x    frame=21847 fps=437 q=-0.0 size=N/A time=00:15:11.20 bitrate=N/A speed=18.2x    frame=22122 fps=438 q=-0.0 size=N/A time=00:15:22.67 bitrate=N/A speed=18.3x    frame=22374 fps=438 q=-0.0 size=N/A time=00:15:33.18 bitrate=N/A speed=18.3x    frame=22628 fps=439 q=-0.0 size=N/A time=00:15:43.77 bitrate=N/A speed=18.3x    frame=22873 fps=439 q=-0.0 size=N/A time=00:15:53.99 bitrate=N/A speed=18.3x    frame=23126 fps=440 q=-0.0 size=N/A time=00:16:04.54 bitrate=N/A speed=18.3x    frame=23392 fps=440 q=-0.0 size=N/A time=00:16:15.64 bitrate=N/A speed=18.4x    frame=23643 fps=441 q=-0.0 size=N/A time=00:16:26.11 bitrate=N/A speed=18.4x    frame=23882 fps=441 q=-0.0 size=N/A time=00:16:36.07 bitrate=N/A speed=18.4x    frame=24055 fps=440 q=-0.0 size=N/A time=00:16:43.29 bitrate=N/A speed=18.3x    frame=24309 fps=440 q=-0.0 size=N/A time=00:16:53.88 bitrate=N/A speed=18.4x    frame=24538 fps=440 q=-0.0 size=N/A time=00:17:03.43 bitrate=N/A speed=18.4x    frame=24788 fps=441 q=-0.0 size=N/A time=00:17:13.86 bitrate=N/A speed=18.4x    frame=25020 fps=441 q=-0.0 size=N/A time=00:17:23.54 bitrate=N/A speed=18.4x    frame=25227 fps=441 q=-0.0 size=N/A time=00:17:32.17 bitrate=N/A speed=18.4x    frame=25451 fps=440 q=-0.0 size=N/A time=00:17:41.51 bitrate=N/A speed=18.4x    frame=25707 fps=441 q=-0.0 size=N/A time=00:17:52.19 bitrate=N/A speed=18.4x    frame=25939 fps=441 q=-0.0 size=N/A time=00:18:01.87 bitrate=N/A speed=18.4x    frame=26212 fps=442 q=-0.0 size=N/A time=00:18:13.25 bitrate=N/A speed=18.4x    frame=26453 fps=442 q=-0.0 size=N/A time=00:18:23.31 bitrate=N/A speed=18.4x    frame=26700 fps=442 q=-0.0 size=N/A time=00:18:33.61 bitrate=N/A speed=18.5x    frame=26957 fps=443 q=-0.0 size=N/A time=00:18:44.33 bitrate=N/A speed=18.5x    frame=27209 fps=443 q=-0.0 size=N/A time=00:18:54.84 bitrate=N/A speed=18.5x    frame=27480 fps=444 q=-0.0 size=N/A time=00:19:06.14 bitrate=N/A speed=18.5x    frame=27742 fps=444 q=-0.0 size=N/A time=00:19:17.07 bitrate=N/A speed=18.5x    frame=28011 fps=445 q=-0.0 size=N/A time=00:19:28.29 bitrate=N/A speed=18.6x    frame=28275 fps=446 q=-0.0 size=N/A time=00:19:39.30 bitrate=N/A speed=18.6x    frame=28543 fps=446 q=-0.0 size=N/A time=00:19:50.48 bitrate=N/A speed=18.6x    frame=28781 fps=446 q=-0.0 size=N/A time=00:20:00.40 bitrate=N/A speed=18.6x    frame=29024 fps=447 q=-0.0 size=N/A time=00:20:10.54 bitrate=N/A speed=18.6x    frame=29275 fps=447 q=-0.0 size=N/A time=00:20:21.01 bitrate=N/A speed=18.6x    frame=29537 fps=447 q=-0.0 size=N/A time=00:20:31.93 bitrate=N/A speed=18.7x    frame=29803 fps=448 q=-0.0 size=N/A time=00:20:43.03 bitrate=N/A speed=18.7x    frame=30060 fps=448 q=-0.0 size=N/A time=00:20:53.75 bitrate=N/A speed=18.7x    frame=30328 fps=449 q=-0.0 size=N/A time=00:21:04.93 bitrate=N/A speed=18.7x    frame=30552 fps=449 q=-0.0 size=N/A time=00:21:14.27 bitrate=N/A speed=18.7x    frame=30825 fps=449 q=-0.0 size=N/A time=00:21:25.65 bitrate=N/A speed=18.7x    frame=31097 fps=450 q=-0.0 size=N/A time=00:21:37.00 bitrate=N/A speed=18.8x    frame=31353 fps=450 q=-0.0 size=N/A time=00:21:47.68 bitrate=N/A speed=18.8x    frame=31566 fps=450 q=-0.0 size=N/A time=00:21:56.56 bitrate=N/A speed=18.8x    frame=31818 fps=450 q=-0.0 size=N/A time=00:22:07.07 bitrate=N/A speed=18.8x    frame=32024 fps=450 q=-0.0 size=N/A time=00:22:15.66 bitrate=N/A speed=18.8x    frame=32174 fps=449 q=-0.0 size=N/A time=00:22:21.92 bitrate=N/A speed=18.7x    frame=32378 fps=448 q=-0.0 size=N/A time=00:22:30.43 bitrate=N/A speed=18.7x    frame=32539 fps=447 q=-0.0 size=N/A time=00:22:37.14 bitrate=N/A speed=18.7x    frame=32706 fps=446 q=-0.0 size=N/A time=00:22:44.11 bitrate=N/A speed=18.6x    frame=32870 fps=446 q=-0.0 size=N/A time=00:22:50.95 bitrate=N/A speed=18.6x    frame=33034 fps=445 q=-0.0 size=N/A time=00:22:57.79 bitrate=N/A speed=18.5x    frame=33202 fps=444 q=-0.0 size=N/A time=00:23:04.80 bitrate=N/A speed=18.5x    frame=33362 fps=443 q=-0.0 size=N/A time=00:23:11.47 bitrate=N/A speed=18.5x    frame=33514 fps=442 q=-0.0 size=N/A time=00:23:17.81 bitrate=N/A speed=18.4x    frame=33674 fps=441 q=-0.0 size=N/A time=00:23:24.48 bitrate=N/A speed=18.4x    frame=33822 fps=440 q=-0.0 size=N/A time=00:23:30.65 bitrate=N/A speed=18.4x    frame=33986 fps=439 q=-0.0 size=N/A time=00:23:37.49 bitrate=N/A speed=18.3x    [Parsed_psnr_10 @ 0000021b89585100] PSNR y:47.156348 u:49.907159 v:49.564660 average:47.857797 min:39.981019 max:inf
[out#0/null @ 0000021bfc8a67c0] video:14645KiB audio:266564KiB subtitle:0KiB other streams:0KiB global headers:0KiB muxing overhead: unknown
frame=34084 fps=439 q=-0.0 Lsize=N/A time=00:23:41.58 bitrate=N/A speed=18.3x    
